<?xml version="1.0" encoding="UTF-8"?>
<!DOCTYPE svg PUBLIC "-//W3C//DTD SVG 1.1//EN" "http://www.w3.org/Graphics/SVG/1.1/DTD/svg11.dtd">
<svg xmlns="http://www.w3.org/2000/svg" version="1.1" width="500px" height="500px" style="shape-rendering:geometricPrecision; text-rendering:geometricPrecision; image-rendering:optimizeQuality; fill-rule:evenodd; clip-rule:evenodd" xmlns:xlink="http://www.w3.org/1999/xlink">
<g><path style="opacity:0.725" fill="#e17227" d="M 283.5,132.5 C 277.158,131.536 270.824,130.369 264.5,129C 254.839,128.5 245.172,128.334 235.5,128.5C 251.872,125.003 267.872,126.336 283.5,132.5 Z"/></g>
<g><path style="opacity:1" fill="#fa6b0a" d="M 235.5,128.5 C 245.172,128.334 254.839,128.5 264.5,129C 270.824,130.369 277.158,131.536 283.5,132.5C 294.585,135.709 304.918,140.542 314.5,147C 343.493,165.824 366.826,189.991 384.5,219.5C 381.877,218.046 379.711,216.046 378,213.5C 377.283,218.113 374.783,221.28 370.5,223C 372.044,223.29 373.377,223.956 374.5,225C 374.167,225.333 373.833,225.667 373.5,226C 374.482,228.738 375.148,231.572 375.5,234.5C 352.958,195.46 321.292,166.293 280.5,147C 275.511,145.338 270.511,143.838 265.5,142.5C 265.082,141.778 264.416,141.278 263.5,141C 258.833,140.833 254.167,140.667 249.5,140.5C 244.449,140.507 239.783,141.173 235.5,142.5C 227.548,143.736 220.548,145.736 214.5,148.5C 214.5,149.833 214.5,151.167 214.5,152.5C 208.027,158.301 202.693,164.968 198.5,172.5C 197.265,172.721 196.265,173.388 195.5,174.5C 194.588,178.133 193.921,181.8 193.5,185.5C 190.801,196.431 186.634,206.764 181,216.5C 179.961,217.71 178.794,218.71 177.5,219.5C 176.531,218.691 175.698,217.691 175,216.5C 173.282,218.897 172.115,221.564 171.5,224.5C 170.264,223.754 168.93,223.421 167.5,223.5C 168.167,221.167 168.833,218.833 169.5,216.5C 169.44,215.957 169.107,215.624 168.5,215.5C 165.965,216.9 163.298,217.9 160.5,218.5C 156.836,218.36 153.336,219.027 150,220.5C 147.299,221.253 145.132,222.586 143.5,224.5C 127.377,230.29 115.71,240.956 108.5,256.5C 109.655,251.851 111.655,247.518 114.5,243.5C 113.902,242.205 113.402,240.872 113,239.5C 112.667,240.167 112.333,240.833 112,241.5C 110.233,240.183 108.899,238.516 108,236.5C 106.908,238.117 105.408,239.117 103.5,239.5C 107.933,231.899 113.933,225.733 121.5,221C 139.875,212.93 158.208,204.764 176.5,196.5C 179.992,186.552 183.492,176.552 187,166.5C 196.498,145.333 212.665,132.666 235.5,128.5 Z"/></g>
<g><path style="opacity:1" fill="#eb7a2a" d="M 198.5,172.5 C 197.404,177.132 195.737,181.466 193.5,185.5C 193.921,181.8 194.588,178.133 195.5,174.5C 196.265,173.388 197.265,172.721 198.5,172.5 Z"/></g>
<g><path style="opacity:1" fill="#ef7a2c" d="M 235.5,142.5 C 228.18,144.992 221.18,148.325 214.5,152.5C 214.5,151.167 214.5,149.833 214.5,148.5C 220.548,145.736 227.548,143.736 235.5,142.5 Z"/></g>
<g><path style="opacity:0.701" fill="#e1782c" d="M 265.5,142.5 C 255.5,141.167 245.5,141.167 235.5,142.5C 239.783,141.173 244.449,140.507 249.5,140.5C 254.167,140.667 258.833,140.833 263.5,141C 264.416,141.278 265.082,141.778 265.5,142.5 Z"/></g>
<g><path style="opacity:1" fill="#e7782a" d="M 160.5,218.5 C 155.059,220.871 149.392,222.871 143.5,224.5C 145.132,222.586 147.299,221.253 150,220.5C 153.336,219.027 156.836,218.36 160.5,218.5 Z"/></g>
<g><path style="opacity:1" fill="#f0711c" d="M 169.5,216.5 C 168.833,218.833 168.167,221.167 167.5,223.5C 168.93,223.421 170.264,223.754 171.5,224.5C 172.115,221.564 173.282,218.897 175,216.5C 175.698,217.691 176.531,218.691 177.5,219.5C 175.402,223.434 172.402,226.6 168.5,229C 162.779,232.573 156.613,234.74 150,235.5C 149.383,234.551 149.549,233.718 150.5,233C 158.581,229.413 164.914,223.913 169.5,216.5 Z"/></g>
<g><path style="opacity:1" fill="#d17e3e" d="M 300.5,238.5 C 298.393,237.532 296.059,237.198 293.5,237.5C 297.664,236.389 301.997,235.889 306.5,236C 304.713,237.319 302.713,238.152 300.5,238.5 Z"/></g>
<g><path style="opacity:1" fill="#fa6a08" d="M 384.5,219.5 C 392.006,229.995 397.006,241.662 399.5,254.5C 401.079,266.56 400.746,278.56 398.5,290.5C 391.594,312.406 377.261,327.072 355.5,334.5C 347.981,335.09 340.647,336.09 333.5,337.5C 333.167,337.5 332.833,337.5 332.5,337.5C 331.288,338.23 330.288,339.23 329.5,340.5C 329.15,338.433 327.483,337.433 324.5,337.5C 324.002,334.99 323.336,332.49 322.5,330C 323.626,323.355 325.293,316.855 327.5,310.5C 321.167,310.5 314.833,310.5 308.5,310.5C 305.784,310.322 303.117,309.822 300.5,309C 291.585,305.373 282.585,302.04 273.5,299C 257.454,298.079 241.454,298.412 225.5,300C 211.945,312.13 196.279,317.297 178.5,315.5C 178.335,318.85 178.502,322.183 179,325.5C 179.759,329.138 180.925,332.471 182.5,335.5C 184.312,342.728 185.812,350.061 187,357.5C 187.236,359.119 188.069,360.119 189.5,360.5C 202.887,359.209 215.887,357.209 228.5,354.5C 228.833,354.5 229.167,354.5 229.5,354.5C 250.211,354.152 270.877,354.818 291.5,356.5C 291.611,357.117 291.944,357.617 292.5,358C 299.457,359.281 306.457,360.114 313.5,360.5C 314.492,360.672 315.158,360.338 315.5,359.5C 316.552,359.351 317.552,359.517 318.5,360C 317.304,360.654 317.304,361.154 318.5,361.5C 320.371,360.233 322.204,360.233 324,361.5C 324.451,359.071 325.285,358.904 326.5,361C 325.624,362.586 324.624,364.086 323.5,365.5C 324.407,368.421 324.74,371.421 324.5,374.5C 320.392,372.942 316.059,372.276 311.5,372.5C 311.167,372.5 310.833,372.5 310.5,372.5C 308.168,370.904 305.501,369.738 302.5,369C 302.018,367.992 301.852,366.825 302,365.5C 300.756,367.45 298.923,368.45 296.5,368.5C 288.247,366.88 279.914,366.213 271.5,366.5C 239.713,364.586 208.546,367.919 178,376.5C 174.603,362.345 171.769,348.012 169.5,333.5C 159.347,332.506 149.014,332.172 138.5,332.5C 115.093,326.092 100.426,311.092 94.5,287.5C 94.5,278.5 94.5,269.5 94.5,260.5C 95.6139,252.614 98.6139,245.614 103.5,239.5C 105.408,239.117 106.908,238.117 108,236.5C 108.899,238.516 110.233,240.183 112,241.5C 112.333,240.833 112.667,240.167 113,239.5C 113.402,240.872 113.902,242.205 114.5,243.5C 111.655,247.518 109.655,251.851 108.5,256.5C 107.043,258.242 105.876,260.242 105,262.5C 104.333,268.5 104.333,274.5 105,280.5C 105.232,281.737 105.732,282.737 106.5,283.5C 108.751,292.672 113.085,300.672 119.5,307.5C 120.038,309.117 120.371,310.784 120.5,312.5C 121.873,312.343 123.207,312.51 124.5,313C 122.936,315.744 123.436,316.577 126,315.5C 133.373,318.727 140.707,321.727 148,324.5C 153.411,323.081 159.245,322.248 165.5,322C 166.056,321.617 166.389,321.117 166.5,320.5C 166.008,316.372 165.008,312.372 163.5,308.5C 155.223,303.562 149.556,296.562 146.5,287.5C 146.338,285.473 146.505,283.473 147,281.5C 147.671,282.252 148.504,282.586 149.5,282.5C 168.308,303.078 189.308,305.578 212.5,290C 225.407,275.921 239.407,263.254 254.5,252C 266.462,244.351 279.462,239.518 293.5,237.5C 296.059,237.198 298.393,237.532 300.5,238.5C 286.952,244.275 274.285,251.609 262.5,260.5C 260.61,260.703 259.11,260.037 258,258.5C 257.798,260.256 257.298,261.922 256.5,263.5C 255.914,263.291 255.414,262.957 255,262.5C 254.557,266.445 252.39,268.445 248.5,268.5C 248.326,270.861 247.993,273.194 247.5,275.5C 255.462,277.38 263.462,279.047 271.5,280.5C 282.004,284.505 292.337,289.005 302.5,294C 306.429,295.477 310.429,296.644 314.5,297.5C 314.611,298.117 314.944,298.617 315.5,299C 322.346,299.821 329.013,299.654 335.5,298.5C 349.01,294.987 360.51,287.987 370,277.5C 368.43,285.46 364.597,292.294 358.5,298C 352.618,303.111 345.951,306.944 338.5,309.5C 337.114,314.428 336.114,319.428 335.5,324.5C 355.182,322.502 370.182,313.169 380.5,296.5C 383.554,293.408 385.888,289.741 387.5,285.5C 388.895,286.815 389.895,286.481 390.5,284.5C 387.655,279.901 386.988,275.068 388.5,270C 386.143,262.056 384.643,253.889 384,245.5C 383.667,246.167 383.333,246.833 383,247.5C 382.172,244.353 380.672,241.686 378.5,239.5C 377.263,238.035 376.263,236.368 375.5,234.5C 375.148,231.572 374.482,228.738 373.5,226C 373.833,225.667 374.167,225.333 374.5,225C 373.377,223.956 372.044,223.29 370.5,223C 374.783,221.28 377.283,218.113 378,213.5C 379.711,216.046 381.877,218.046 384.5,219.5 Z"/></g>
<g><path style="opacity:1" fill="#e27123" d="M 94.5,260.5 C 94.5,269.5 94.5,278.5 94.5,287.5C 91.8742,278.494 91.8742,269.494 94.5,260.5 Z"/></g>
<g><path style="opacity:0.816" fill="#e27425" d="M 108.5,256.5 C 105.57,265.331 104.903,274.331 106.5,283.5C 105.732,282.737 105.232,281.737 105,280.5C 104.333,274.5 104.333,268.5 105,262.5C 105.876,260.242 107.043,258.242 108.5,256.5 Z"/></g>
<g><path style="opacity:0.675" fill="#e07428" d="M 399.5,254.5 C 400.965,259.59 401.632,264.923 401.5,270.5C 401.777,277.493 400.777,284.16 398.5,290.5C 400.746,278.56 401.079,266.56 399.5,254.5 Z"/></g>
<g><path style="opacity:1" fill="#e67223" d="M 262.5,260.5 C 257.729,264.769 253.062,269.269 248.5,274C 254.546,275.119 260.546,276.452 266.5,278C 268.491,278.374 270.158,279.207 271.5,280.5C 263.462,279.047 255.462,277.38 247.5,275.5C 247.993,273.194 248.326,270.861 248.5,268.5C 252.39,268.445 254.557,266.445 255,262.5C 255.414,262.957 255.914,263.291 256.5,263.5C 257.298,261.922 257.798,260.256 258,258.5C 259.11,260.037 260.61,260.703 262.5,260.5 Z"/></g>
<g><path style="opacity:1" fill="#e17930" d="M 149.5,282.5 C 148.504,282.586 147.671,282.252 147,281.5C 146.505,283.473 146.338,285.473 146.5,287.5C 144.708,283.767 143.875,279.767 144,275.5C 145.842,277.864 147.675,280.197 149.5,282.5 Z"/></g>
<g><path style="opacity:1" fill="#f17019" d="M 378.5,239.5 C 380.672,241.686 382.172,244.353 383,247.5C 383.333,246.833 383.667,246.167 384,245.5C 384.643,253.889 386.143,262.056 388.5,270C 386.988,275.068 387.655,279.901 390.5,284.5C 389.895,286.481 388.895,286.815 387.5,285.5C 385.888,289.741 383.554,293.408 380.5,296.5C 385.688,284.972 387.188,272.972 385,260.5C 383.324,253.308 381.157,246.308 378.5,239.5 Z"/></g>
<g><path style="opacity:0.763" fill="#d27936" d="M 314.5,297.5 C 321.443,298.427 328.443,298.76 335.5,298.5C 329.013,299.654 322.346,299.821 315.5,299C 314.944,298.617 314.611,298.117 314.5,297.5 Z"/></g>
<g><path style="opacity:1" fill="#eb711f" d="M 119.5,307.5 C 132.755,320.027 148.422,324.36 166.5,320.5C 166.389,321.117 166.056,321.617 165.5,322C 159.245,322.248 153.411,323.081 148,324.5C 140.707,321.727 133.373,318.727 126,315.5C 123.436,316.577 122.936,315.744 124.5,313C 123.207,312.51 121.873,312.343 120.5,312.5C 120.371,310.784 120.038,309.117 119.5,307.5 Z"/></g>
<g><path style="opacity:1" fill="#e57226" d="M 178.5,315.5 C 180.451,321.923 181.785,328.589 182.5,335.5C 180.925,332.471 179.759,329.138 179,325.5C 178.502,322.183 178.335,318.85 178.5,315.5 Z"/></g>
<g><path style="opacity:1" fill="#e27022" d="M 138.5,332.5 C 149.014,332.172 159.347,332.506 169.5,333.5C 164.016,333.976 158.516,334.309 153,334.5C 147.898,334.707 143.065,334.04 138.5,332.5 Z"/></g>
<g><path style="opacity:1" fill="#f56c12" d="M 308.5,310.5 C 314.833,310.5 321.167,310.5 327.5,310.5C 325.293,316.855 323.626,323.355 322.5,330C 323.336,332.49 324.002,334.99 324.5,337.5C 327.483,337.433 329.15,338.433 329.5,340.5C 330.288,339.23 331.288,338.23 332.5,337.5C 330.343,350.617 327.677,363.617 324.5,376.5C 320.008,375.3 315.674,373.966 311.5,372.5C 316.059,372.276 320.392,372.942 324.5,374.5C 324.74,371.421 324.407,368.421 323.5,365.5C 324.624,364.086 325.624,362.586 326.5,361C 325.285,358.904 324.451,359.071 324,361.5C 322.204,360.233 320.371,360.233 318.5,361.5C 317.304,361.154 317.304,360.654 318.5,360C 317.552,359.517 316.552,359.351 315.5,359.5C 318.056,343.888 321.056,328.388 324.5,313C 318.936,312.751 313.602,311.918 308.5,310.5 Z"/></g>
<g><path style="opacity:0.576" fill="#e5752a" d="M 355.5,334.5 C 348.383,337.106 341.049,338.106 333.5,337.5C 340.647,336.09 347.981,335.09 355.5,334.5 Z"/></g>
<g><path style="opacity:0.809" fill="#db7328" d="M 229.5,354.5 C 243.661,353.339 257.994,353.173 272.5,354C 279.056,354.234 285.389,355.067 291.5,356.5C 270.877,354.818 250.211,354.152 229.5,354.5 Z"/></g>
<g><path style="opacity:1" fill="#e67221" d="M 228.5,354.5 C 215.887,357.209 202.887,359.209 189.5,360.5C 202.117,356.839 215.117,354.839 228.5,354.5 Z"/></g>
<g><path style="opacity:1" fill="#e47124" d="M 291.5,356.5 C 299.112,356.958 306.446,358.291 313.5,360.5C 306.457,360.114 299.457,359.281 292.5,358C 291.944,357.617 291.611,357.117 291.5,356.5 Z"/></g>
<g><path style="opacity:1" fill="#e67227" d="M 310.5,372.5 C 297.45,369.934 284.45,367.934 271.5,366.5C 279.914,366.213 288.247,366.88 296.5,368.5C 298.923,368.45 300.756,367.45 302,365.5C 301.852,366.825 302.018,367.992 302.5,369C 305.501,369.738 308.168,370.904 310.5,372.5 Z"/></g>
</svg>